<?xml version="1.0" encoding="utf-8"?>
<!-- Generator: Adobe Illustrator 24.0.2, SVG Export Plug-In . SVG Version: 6.00 Build 0)  -->
<svg version="1.1" id="Capa_1" xmlns:inkscape="http://www.inkscape.org/namespaces/inkscape"
	 xmlns="http://www.w3.org/2000/svg" xmlns:xlink="http://www.w3.org/1999/xlink" x="0px" y="0px" viewBox="0 0 1183 2657.6"
	 style="enable-background:new 0 0 1183 2657.6;" xml:space="preserve">
<style type="text/css">
	.st0{clip-path:url(#SVGID_2_);}
	.st1{fill:#FEFEE9;}
	.st2{fill:#D4F266;fill-opacity:0.4314;}
	.st3{clip-path:url(#SVGID_4_);}
	.st4{fill-rule:evenodd;clip-rule:evenodd;fill:#D6CD5B;fill-opacity:0.4314;}
	.st5{fill:#FF9255;fill-opacity:0.4314;}
	.st6{clip-path:url(#SVGID_6_);}
	.st7{fill-rule:evenodd;clip-rule:evenodd;fill:#004200;fill-opacity:0.431;}
	.st8{fill-rule:evenodd;clip-rule:evenodd;fill:#4A844A;fill-opacity:0.431;}
	.st9{fill:none;stroke:#636363;stroke-width:4.6873;stroke-linejoin:round;}
	.st10{fill:#F79C91;}
	.st11{fill-rule:evenodd;clip-rule:evenodd;fill:#F79C91;}
	.st12{fill:#DEF293;}
	.st13{fill-rule:evenodd;clip-rule:evenodd;fill:#9FC4A6;}
</style>
<g id="Fondo" inkscape:groupmode="layer" inkscape:label="Fondo">
	<g>
		<defs>
			<rect id="SVGID_1_" x="-1.7" y="-0.9" width="314.6" height="804.2"/>
		</defs>
		<clipPath id="SVGID_2_">
			<use xlink:href="#SVGID_1_"  style="overflow:visible;"/>
		</clipPath>
		<g id="Grupo10" transform="translate(-1.74458, -0.888133) scale(0.303719, 0.301561)" class="st0">
			<path class="st1" d="M411.2,2198.7l0.4-0.4l0-0.8l0.2-0.2l0.3-0.5l0.3-0.7l0-0.5l6.9-8l0.1-2.1l-0.1-1.5l0-1l-0.5,0.1l-0.2,0
				l-0.1-0.3l-0.3-0.6l-0.2-0.2l0-0.3l0.3-0.1l-0.1-0.3l-0.4-0.3l-0.5-0.3l-0.4-0.1l-0.8-0.1l-0.5-0.1l-0.6-0.1l-0.3-0.2l-0.7-0.2
				l-0.5-0.3l-0.2-0.5l-0.2-0.4l-0.2-0.2l-0.2-0.3l0-0.9l0.3-0.3l0.2-0.3l0.2-0.2l0.1-0.2l1-0.2l0.2-0.4l0-0.4l-0.2-0.2l-0.1-0.3
				l0.2-0.1l0.3-0.3l0-0.2l-0.1-0.2l-0.3-0.4l-0.2-0.4l0.2-0.2c0.3-0.2,0.3-0.4,0.3-0.5l-0.1-0.4h-3c-5.9,2.1-19.2,21.6-17.8,31.8
				l0.5,0.2l0.1,0.2l-0.5,0.2l-0.4,0.2l-0.6,0.7l0.8,1.2L411.2,2198.7z"/>
			<path id="rcentro" class="st2" d="M567.1,1021.9l-5.2,0.3l-1.3,4.2l-0.6,2.2l-2.6,0.2l-5.7-2l-2.4,1.4l-1.1,3.5l0.6,3l1.5,0.3
				l1,0.8l-0.2,1.4l-1,0.5l-0.1,2l-1.1,0.4l-5.5-0.5l-8.7,1.2l0.1-2l-1.6-0.1l-0.2,2l-2.4-2.1c0,0-3.2-0.1-4.1-0.1
				c-0.9,0-3.2,1.4-3.2,1.4l-2.7,3.2l-4.3,0.6l-0.6-1.1l-1-1.6l-2-0.2l-1.5,0.1l0.1,1.2l-4.7,3.9c0,0-2.6,4.8-2.9,7.4
				c-0.2,1.4,0.5,2.8,0.5,4.2c0,1.5-0.4,3-0.8,4.5c-0.3,1.4-0.1,3.2-1.1,4.2c-1.1,1.1-4.5,2.6-5.9,3.2c-2.3,0.8-3-0.2-4.4,1.8
				c-1.4,2.1-2,4.6-0.8,6.8c2.7,4.5,4.1,3.5,2.9,14c-0.3,2.5,2.7,10.5,2.9,13.1c0.2,2-2,3.6-3.2,5.3c-1.1,1.5-2.4,2.8-3.6,4.2
				c-2.9,3.5-8.6,10.5-8.6,10.5l-6,18.5c-4.5,34.8-4.4,11.1-9.1,37.3c-5.9,33.2-20.2,50.3-27.9,61.8c4.3,13,2.3,14.6-8,26.5
				c-16.8,42.8-24.4,54.1-24.4,54.1l7,0.9l5.6,11.2l1.7,0.9l-0.3,5.8l1.2,5.8l1.8,3l9.5,1.8l4,9.1l0.9,7l4.3,4.6l5.2,3.6l5.2-1.5
				l11.9,4l4.9,4l3.4-1.8l4.9,2.7l9.2,2.4l1.5-1.5l2.7,1.8l0.6,2.4l4,1.2l2.1,4.9l14,15.5l6.1,2.4l3,7.9l-2.7,4l1.5,3.3l3,1.8
				l0.9,10l3,1.8l-0.6,2.4l3.7,2.4v2.1l2.7,3l-9.9,7.6l8.6-1.2l3.7-3l3.4,2.7l5.2-2.1v-4l3.1-4.6l2.4-2.1l-9.2-8.8l-1.6-12.8
				l0.6-9.5l-8.5-15l-1.8-3.3l-1.8-13.4l4-5.5l-1.8-4.3l1.5-4.6l-4.6-6.1v-4.3l3.7-7.9l0.3-3.6l3.7-2.1l-4.9-6.4l2.1-2.4l-1.8-7.6
				l3-12.8l4,1.8v-14.3l7,0.3l2.2-6.5l10.9,2.4l-0.2-5.8l0.4-5.6l7.7-8.1l7.6,1.8l2.7-8.7l-1.3-9.4l5.1-4.7l-4.3-13.7v-7.7l-2.6-5.1
				l0.8-7l-9.8-3.3l3-5.1l9-1.3l0.9-3.4l0.4-7.7l7.3-15l-4.7-4.3l6.9-10.3l6-8.5l5.6-4.3l-1.7-9.4l4.3-1.3l3.9,3l6-3.4l-1.3-5.6
				l-2.1-4.8l1.7-6.3l-3-14.1l0.4-2.2l-0.4-6.7l3-9.8l3.3-5.8l-0.3-4l-2.1-9.1l-5.2-2l-4.2,5.6l-3.9-3l-3.4-13.7l4.3-3l2.6-7.7
				l-6.3-7.2c-1-4.5-3.9-5.8-3.9-5.8l-1.6-5.7l3.5-2.4l-1.7-6.5l-1-3.9l-4.2,0.9l2.2-8.3l-4.5-0.7l-2.1-2.1l-5.3,0.9l-2.5,2.6
				L567.1,1021.9z"/>
			<g>
				<defs>
					<rect id="SVGID_3_" x="592.8" y="364.2" width="82.5" height="314.5"/>
				</defs>
				<clipPath id="SVGID_4_">
					<use xlink:href="#SVGID_3_"  style="overflow:visible;"/>
				</clipPath>
				<g id="rnorte" transform="translate(498.213, 0) scale(1, 1)" class="st3">
					<path class="st4" d="M74.1,637l4.2,2.9l7.4,8.1l5.4-4l4-1.3l2.2-0.5l4.1,0.5l-0.1,2.6l1.1,1.6l4.3,0c0.1-3.8,1.6-1.9,1.7-2.9
						h1.2h3.4l3.2-1.6c1.1-0.3,2.1-0.4,3.2,0.7l0.2,2.3l1.4,0.2l3.1,1.1l-0.3-1.9l0.5-1.4l3.2-10.9l1.8,0l1.9-0.1l1.8,1.6l1.8-3.3
						l7.9,0.8l-0.4,3.7h2.4l1.4,3.5l2.7,0.5l2.4-2.8l2.8,0.8l0.6,1.8l0.3,0.2l2.2,2.3l2.6-0.4l4,0.2l0.8-1.9l0.6,1.2l-0.2,1l-0.1,1
						l0.5,0.8l2.7-1.1l0.2,2.2l0.3-2.2l3.3-0.6l0.4-2.3l2.9-1.2l3.1,1l2.5-3.5l1.8,1.2l1.4,1.7l5.1,2.4l4.9-3c0,0,0.3,3.2,0.7,3.6
						c0.4,0.5,2.8,2.5,3.8,3.4c1,0.9-1.6,3.9-1.6,4.6c0,0.6-1.6,3.3-1.6,3.3s-0.1,3.3-0.1,3.6c0,0.2-3.3,1.2-3.3,1.2l-6.3,0.6
						l-3,7.1l-3.2,0.9l-5.4-5.7l-4.7,1.1l-5.1,9.4l2.2,3.1l-2.4,1.5l-9.1,21.1l-1.5,3.4l-1.8,9.8l-2.6,8.9l-5.9,3.4l-8.5,15.3
						l-4.7-1.2v7.6l-3.8,0.9l-4.1,4.9l-3.5,2.4l1.2,7.3l-4.4,10.7l2.6,7.6l-5.3,6.7l-0.9,15l-2.9,0.6l-6.8,1.8v6.4l-2.9,2.4
						l-1.8,3.7l2.6,4l1.5,15.3l4.1,4.9l-2.9,4.6l2.4,7.9l-0.9,3.1l-1.2,10.1v3.1l4.7,0.3l3.4-0.1l-1.9,8l-2.6,2.1l-2.9,6.7l-3.2,4
						l-6.7-3.3l-2.7,7.2l-4.4,9.8l0.3,5.5l-1.5,3.1l-4.1,12.2l1.8,6.4l-2.9,5.5l-4.1,6.7l-2.4-5.8l-3.2,2.4l-1.8,16.5l-1.8,6.4
						l-0.6,3.1l3.5,10.1l2.4,1.5l1.2,9.4l6.4,2.6l4.6,0.9c7.3-1.4,1.9,4.8,3.1,6.7l-4.4,3.6l-5.1,0.8l4.4,7.9l-1.3,8.1l-5.1,0.9
						l-2.4,2.6l-3.6,1.5l-5,0.3l-1.9,6.5l-2.5,0.2l-5.6-2l-2.3,1.4l-1,3.5l0.6,3l1.5,0.3l1,0.8l-0.1,1.4l-1,0.5l-0.1,2l-1.1,0.4
						l-5.3-0.5l-8.4,1.2l0.1-2l-1.6-0.1l-0.2,2l-2.3-2.1l-4.1-0.1c-1.3,0.2-2,0.9-3,1.4l-2.6,3.3l-4.1,0.6l-1.5-2.7l-2.1-0.2
						l-1.4,0.2c0,0-2.6-17.5-5.8-27.3C9,986.1-1.4,925.5,0.2,887.3c3.1-26,8.9-1,11.8-13.9c4.1-6.2,4-0.4,4.5-3.3
						c0.8-2.1-1.1-8.3-0.3-11.2c0.8-2.9,2.9-1.2,4.1-5c1.2-3.8-0.5-8-0.8-12.6c-0.2-4.5,1-18.7-0.1-24c-1.1-5.3-7.2-10.2-7.2-10.2
						s-2.7-10.1-2.4-24c0,0,3-2.8,4.3-4.4c1.4-1.7,2.9-3.4,3.9-5.5c1-2.1,1.5-4.5,2.1-6.8c0.8-2.9,0.8-6.1,2.1-8.9
						c0.6-1.3,1.9-2.3,2.7-3.5c1-1.5,2.2-3,2.8-4.7c0.7-1.9,0.4-6.3,0.4-6.3c4-25,3.1-28.6,8.2-41.9c0.5-1.3,1.1-2.8,2.3-3.6
						c1.3-0.9,3.4,0.4,4.5-0.7c2.1-2,2.1-5.8,1.8-8.7c-0.3-3-2.8-5.4-3.4-8.3c-0.4-2.3,0.1-4.8,0.2-7.1c0.2-3.1,0.7-9.4,0.7-9.4
						l15-34.8L74.1,637z"/>
					<path class="st5" d="M77.9,58.2c2-2.9,3-3.2,6.7-2.5l3.6,0.5c2.7,0.5,6.5-2.3,8.2-3.4c3.4,0,5.2-0.1,7.2-3.5
						c0-0.1,0.2-0.3,0.3-0.3c6.8-6.3,6-7.3,9.4-14.9c0.3-0.6,0.5-3.4,0.5-3.4l-1.7-2.2l-0.7-1.9l-0.4-1.4l-0.3-4.4l0.2-2.6l-1.1-1.3
						l-0.2-2.8l1.5-3.9c2.2,0.1,7.5,0.9,7.5,0.9s1.6-1.6,2.6-2.4l3.3-2.8c1.2-1,2.2-2.4,3.4-3.5l2-2.5c0,2,0,5.2,0,7.2
						c0,0.1,7,8,7,8s0.7,0.7,0.8,1.2c0.2,0.7-0.5,0.6-0.2,2.1c0.1,0.5,0.9,1.1,1.2,1.6l0.2,0.5c0.2,0.5,0,1,0,1.5
						c0,0.9,0.5,1.5,0.6,2.4c0,0.3-0.2,0.9-0.4,1.1c0.1,0.9,0.2,1.9-0.1,2.8l0.2,0.5c0.9,0.2,0.9,1.9,1.6,3.2l0.4,0l0.7-0.8l0.5,1.6
						l0.3,0.4l0.4,0l0.7-0.4l0.2,0c1.7,0.9,0.9,0.1,2.8,0.7c0.3,0.1,0.9,0.1,1.2,0.3c1.2,0.4,1.7,0.7,2.4,1.8c0.4,0.3,3,2.2,3.1,2.7
						c0,0.4-5.2,5.3-5.1,7c0.1,1.7,5.1,4.9,4.8,5.5c0.6,0.9-1.2,2.1-0.8,3.4c0.5,0.9,1.6,0.9,1.9,1.7c0.4,1-0.3,2.5-0.3,3.6
						c0,1.4,0.1,2.8,0.4,4c0.2,0.7,0.7,1.2,0.8,2c0.1,0.5,1.2,0.6,1.2,1c0.2,1.4-0.4,2.8-0.3,4.2c0.1,1.6-1.1,2.5-0.1,3.9
						c-0.3,0.5-0.9,0-1.5,1.8c0,0.9,1.3,0.5,1.7,1.1c0.2,0.6,1.2,3.9,1.3,4.6c0.1,0.6,0.4,1.1,0.5,1.6c0.1,0.6,0.2,1.2,0.4,1.7
						c0.3,0.8,0.8,1.7,1.2,2.4c0.4,0.7,0.7,1.5,1,2.3l0,0.6c0.2,0.5,1,4,0.8,4.5c-0.4,1.1-1.9,2-2,2.8c0,0.6,1.4,2.1,1.9,2.6
						c0.9,0.9,0.9,3.4,1.7,4.8c1.1,1.7,4,2.7,5.6,3.8c1.1,1,2,2.1,2.9,3.2c0.8,0.9,0.9,1.6,2.1,2.3c0.6,0.4,1.2,1.4,1.6,1.9
						c0.6,0.8,2.7,3.1,3.2,4c0.5,0.9-0.1-0.1,0.4,0.8c0.6,0.5,3.5,1.2,4.8,2.1c1.3,0.9,6.9,6.8,6.9,6.8l0.6,1.1l-0.6,0.6l0.2,0.8
						l-2.1,0.5l-6.3,10.3l-0.9,0.9l-1.7,2.3c-0.1,0.5-0.1,1.5-0.4,2l-0.5,0.2c-0.3,0.6-0.5,1.2-0.6,1.8c-0.4,0.2-0.6,0.1-1,0.2
						c-1.4,0.4-2.9,1.4-3,3c0.4,0.2,1,0.3,1.5,0.3c2,1.8,3.1,2.4,3.8,5.2l4.3,1.4c0.2,0.9-0.9,1.9-0.8,2.7l1.3,2.1
						c0.5,1-2,7.5-2.4,9c-1.7,0-3.7-0.1-5.3,0.4c-0.8,0.2-1.5,1-2.3,1.2c-1.7,0.3-2.2,0.4-3.8,0.9c-0.2,0.4-0.4,2.1-0.4,2.4
						c1.5,0.3,3.7,1.1,4.2,1.8c1.2,2.2-0.6,7.1-1.2,6.7c0.5-0.3,3.4,4.8,2.8,5.8l-0.1,1.5c-0.6,1.5-2.1,1.7-4.1,1.8
						c-0.3,0.6,0.2,4.3,0,5c0.2,0.5,0-0.1,0.2,0.4c0.7,0.7,0.9,0.7,1.8,1.8c1.9,2.3,2.6,2.6,5.1,3.9c0.8,0.4,1.7,1.1,2.5,1.4
						c0.6,0.3,1.7,0.3,2.2,0.8c0.8,0.9,1.1,2.5,1.2,2.6c0.3-0.1,1.3-0.2,1.6-0.1c0.4,0.5,1.2,2.1,1.7,2.2l0.8,0l0.2,0.6
						c-1.2,2.4-2.6,1.4-3.6,2.1c-0.2,0.2-0.7,0.9-0.9,1.2c-0.4,1,0.1,2.9-2,2.6c-0.1,0.2,0,0.5,0,0.7c0,0.7,0.4,1.3,0.5,1.9
						c0.1,1,0.1,2.1,0.1,3.1c-0.1,3.7-0.8,3.8,0.9,7.2c0.1,0.1,0.5,0.8,0.7,1c1.1,0.8,5.2,0.7,6.3,0.7c0.6,1.6,1.7,3.3,2.5,4.7
						c0.8,1.3,1.6,2.5,2.2,3.6c1.9,3.2,7.6,14.2,8.3,16.4c0,0.1,0,6.3,0,6.9c0,4.7-0.1,9.3-0.3,14c1.2,1.6,2.9,3.5,3.9,5.2
						c0.7,1.3,0.6,3.2,1.4,4.4c1.6,2.5,1.8,0.4,1.6,4.2c-0.2,4-0.5,8.1-0.4,12.1c0.2,0.2,3,2.8,3.1,3c0.2,0.4,0.2,0.8,0.6,1.2
						c0.5,0.1,1.8,0.4,2.1,0.8l0.2,1.6c2.9,2.6-0.3,3.8,0.5,6.4c0.1,0.4,0.5,0.9,0.7,1.3c1.3,3.3,1.4,3.9,0.4,7.1
						c-0.3,0.8-0.3,1.6-0.7,2.4c0.5,2.4,1.5,4.5,2.9,6.4c0.2,1.9,0.3,3.8,0.4,5.6c0.8,1.1,1.6,2.2,2.3,3.4
						c-0.6,2.7-2.5,9.7-2.1,12.4c0.2,1.1,1.2,5.7,0.6,6.8l0.2,0.3c0.9,0.4,1.7,0.9,2.8,0.8c0.5,0.1,1.5,1.8,1.7,2.3
						c3.3,0.4,6.6,0.8,9.9,1.3c3.7,0.5,5.1-0.4,8.9-1.4c2.1-0.6,8.8-2.3,9.9-2.9l0.2,0c2.2-0.5,4.3-1.2,6.5-1.8l10.3,14.8
						l-16.7,64.6l-2.7,4.3l-0.8,2l-54.8,26.2l0.5,2.3l-1.9,2.8l-2.7-1.4l-2.2,0.3l0.8,3.7l-4.7,6.3l-2.9,8.1l-0.2,4l2,1.1l6.1,9.1
						l1.6,5.9l1.1,2.8l-4.1,3.1l-2.7,1.4l-2.9,6.6l-1.2,5.4l-4.7,4.3l1.6,3.1l0.8,4.8l2.2,2.8l-0.5,4.3l2.9,7.5l7.9,30.9l-10.5,8.2
						l-1,13.9l11.7,19.6l-4.9,3l-5.1-2.4l-1.4-1.7l-1.8-1.2l-2.5,3.5l-3.1-1l-2.9,1.2l-0.4,2.3l-3.3,0.6l-0.3,2.2l-0.2-2.2l-2.7,1.1
						l-0.5-0.8l0.1-1l0.2-1l-0.6-1.2l-0.8,1.9l-4-0.2l-2.6,0.4l-2.2-2.3l-0.3-0.2l-0.6-1.8l-2.8-0.8l-2.4,2.8l-2.7-0.5l-1.4-3.5
						h-2.4l0.4-3.7l-7.9-0.8l-1.8,3.3l-1.8-1.6l-1.9,0.1l-1.8,0l-3.2,10.9l-0.5,1.4l0.3,1.9l-3.1-1.1l-1.4-0.2l-0.2-2.3
						c-1.1-1.1-2.1-1-3.2-0.7L113,644h-3.4h-1.2c-0.1,1-1.6-0.9-1.7,2.9l-4.3,0l-1.1-1.6l0.1-2.6l-4.1-0.5l-2.2,0.5l-4,1.3l-5.4,4
						l-7.4-8.1l-4.2-2.9l-17.7-9l-0.8-54.4c0,0,1-15.6,3.1-20.6l0,0c2.2-5,5.6-5.6,7.4-9.5c1.8-4,3.3-7.3,2.9-13.8
						c-0.4-6.5-6-8.2-7.9-23.7c-1.9-15.5,4.3-53.8,5.4-68.4c1-14.6,4.2-15.8,1.2-19.4c-3-3.6-6.2,3.2-6.9-5
						c-0.6-6.9,0.2-27.5,5.4-31.8c3.4-2.8,2.8-2.5,4-1.5c0,0,2.1,1,2.9,0c3.1-4,2.6-2.4,3.1-4c4.4-12.7,7.1-55.4,9.7-72.6
						c2.6-17.2,3.2-14.2,5-27.9c1.7-13.4-6.9-52.5-6.9-52.5l5.4-50.1L81,125.5l-1.5-19.5l-2.9-16.5l0.6-9.9l0.4-12.9L77.5,63
						l-0.4-4.8h0.4H77.9z"/>
				</g>
			</g>
			<g>
				<defs>
					<rect id="SVGID_5_" x="449.5" y="1781.6" width="175" height="395.7"/>
				</defs>
				<clipPath id="SVGID_6_">
					<use xlink:href="#SVGID_5_"  style="overflow:visible;"/>
				</clipPath>
				<g id="r_sur" transform="translate(248.983, 1323.43) scale(1, 1)" class="st6">
					<path class="st7" d="M88.6,472.3l15.5-6.4l48.8,4.6l22.4-122.1l6.3-6.2l3.4-2.8l6-3.7l2.9,0.8l4,6l3.1,2.1l5.4-4.7l7.1,2.4
						l0.5,2.3l2.5,1.9l1.2-0.8l2.4,0.7l-1.4,2.4l3.8,1.7l-1.6,2.5l0.5,1.8l-2.2,1.1l-1-0.8l-1.7-0.4l-3.6,3.8l4.1,0.9l-1.3,1.5
						l0.5,1.9l2.5,3.2l10.3,18.4l-4.6,13.5l-2.9,18l11,11.2l13.9,8.1l-3.8,7.3l-9.3,9.6l18.4,15.5l-7.8,11.2l4.6,11.4l-9.3,11.2
						l0.6,14.8l38.2,4.5c5.7,3.6,6.1,7.4,4.8,9.8l-8.2,0.3l1,11.7l-5.7,3.5l-9.6-5.2l-17.9,2l-16.4-0.7l0,9.3l21.4,4l6.5,1.8
						l5.1,4.1l2.3,7.4l5.1,3.2l3.7,8.3l-10.1,5.5l1.4,5.1l-1.4,4.1l-15.7,0.5l-0.9,12.4l1.4,3.7v4.6l5.1,2.8l4.2,6.9l-10.6,9.2
						l-6,0.9l1.4,3.7h4.6l6,21.6l0.9,12l-8.8,6.4l-7.4,1.4l-0.2,9.4l1.5,4.9l-3.2,3.7l9.6,6.6l-4.9,2.6v2.8l-7.8-1.8v6.4l-6,3.2
						l-1.8,4.1l-3.2-0.5l-8.3,2.8l2.8,3.2l-0.5,9.2l-6,6.4h-5.1l2.8,5.5l-4.2,6.4l1.8,1.8l9.2,9.7l3.1,12.9l1,2.7l-0.9,4.6l-5.5-0.5
						l-2.8,4.1l0.9,3.7l-5.1,2.8l-3.2-3.7l-2.8,2.8L200,817l-17.6,12.2l-8-3.1l-11.5,19.8c3.3,0.2,5.3,0.3,6.3,2.7l-4,4.3l-1.6,1
						L163,855l0.6,1.9l2,0.7l2.4,0.2l0.5,0.4l-0.1,0.7l0.3,1.1l0.9-0.3l0.1,5l-0.8,2.6l-0.8,2.2l-1.2,0.6l-0.9,0.6l-2.7,2
						c-0.8,3.5,2.2,1.4-1.2,2.5c-1.3,0.9-12.6,6-12.6,6c-1.4,0-3.3-0.4-4.1,0.4c-0.6,0.6-1,1.2-1.2,2l-1,1.4L139,894l3.7,2.3
						l3.7,0.9l-3.7,4.1l-2,5.8l4.8,3.4l-0.9,3.7l2.3,3.7l-2.3,4.1l5.1,1.8l0.9,10.6l12,7.8l-3.2,11.5l3.2-1.8l5.4-1.8l8.9-5.5
						l9.2-4.6l9.1,3.5c1.6-4.7,3.2-2.3,5.2-4c5.1-1.2,9.9-0.8,13.8,3.2l-3.7,6.9l5.5,7.4l-1.4,12.4l-4.2-0.9l-4.2,4.6l0.9,5.1
						l7.4,3.7l-3.7,5.1l-2.3,13.8l-5.1,5.5l5.5,0.5c2.8,1.8,2.6,4.7,3.2,7.4l6.5,1.8c7.7,3.5,13.3,7.7,15.2,12.9l-5.5,3.2l7.4,2.9
						l112.4-1.4l32.1,10.9h15.9c0,0,20.7,5.9,46.6,12.4l0,3.3l-10.9,20.3V1232l13-3.6l33.5,3l15-1.5l29,4l14.5,5l9.5,4.5l8.5,0.5
						l21.3,8.3c0,0-6.6,26.3-36,46.5c-19.7,19.8-10.3,13.6-70.8,6.9c-60.5-6.7-172.3-32.8-240.6-63.4
						c-68.3-30.5-98.4-61.1-135.2-100.8c-36.8-39.8-44.8-72.2-62.6-120.1c-13-49.5-19.9-87.5-25.5-146.6
						C-0.2,815.5-2,745.7,2.7,695.3c4.8-50.4,28.1-39.6,34.8-67.7c6.7-28.1-5.4-64.6,0.2-85c11.2-15.6,11.8-25.3,21.5-71"/>
					<path class="st8" d="M157.3,0l3,0.4l4,0.6l5.6,11.2l1.7,0.9l-0.3,5.8l3.1,8.8l9.5,1.8l4,9.1l1.1,6.5l6.6,6.1l3.4,2.6l2.6-2.6
						l12.9,3.4l5.7,5.2l3.3-1.3l15.7,3.6l2.7,1.8c1.5,1.2,3.4,2.2,4.6,3.6l10.4,13.7l5.8,6.5l6.2,2.6l3,8.1l-2.9,3.8l5.3,6.1
						l1.9,9.2l1.4,1.7l3.4,4.7l3.1,4.9l-2.8,2.2l-18,15.2l3.4,26.1l-5.1,6l2.1,4.3l-5.6,4.3l2.1,6l-7.7,1.3l-4.7-3.8l0.4,19.2l6,3
						l-5.6,9.4v5.1l-6-0.9l-0.9,4.7v5.6l3,2.6l3.9-0.4l1.3,6l-4.3,3.4l-3.9-0.4l-3.9,8.1l3.4,5.1l-7.3,8.5l2.6,17.1l4.3,2.6l-3,7.7
						l0.9,5.6l-3,7.7l4.7,15.4l-2.1,2.1l1.3,4.7l5.1,10.7l-0.4,13.3l1.7,6.4l-12,6l-0.9-3l-5.6-0.4l-9,1.5l-2.4-3.6l-0.5-2l0.9-0.8
						l-4.2-0.8l4.7-5l2.6,1.6l1.9-0.9l-0.9-2.1l1.8-2.3l-3.9-1.7l1.2-1.6l-1.8-0.9l-0.7,1.3l-3.4-2.8l-0.3-2l-6.7-2.6l-5.6,4.5
						l-3.1-2.1l-4-6l-2.9-0.8l-15.7,12.7l-14.1,81.7l-6.8,40.5l-50.4-4.4l-15.9,6.8l-29-0.7c0.9-5.7-1.1-13.8,0.9-19.2
						c1.9-5.4,5.5-13.4,10.6-20.8c5.1-7.4,12.6-6.6,20.5-22.6c7.9-15.9,1.8-66.3,14.1-74.9c12.3-8.6,10.6,4,13.6,2.3
						c2.9-1.7,2.6-2.5,2.3-6.2c-0.3-3.7-4.6-4.9-7.9-13.5c-3.4-8.6-10.4-26.3-8.5-38.8c1.9-12.5,14.9-21.8,18.1-31.5
						c3.2-9.7,2.7-18.9,2.8-24.8c0.2-5.8-2.9-6.3-0.6-10.1c2.3-3.8,9.6-1.1,15.3-6.8c5.6-5.7,11.8-14.4,12.4-28.7
						c0.7-14.3-14.8-38.6-16.9-51.8c-2.1-13.2-0.7-19.4,0-25.9c0.7-6.5,3.6-6.2,2.8-12.9c-0.8-6.7-10-17.6-11.9-24.8
						c-1.9-7.2-1.7-10.2-1.1-16.9s-0.2-19.5,5.6-22.5c5.8-3.1,10.6,6.2,15.3,5.6c4.6-0.6,7.2-3,9.6-6.8c2.4-3.7,2.8-14.6,2.8-14.6
						l-1.1-0.6"/>
				</g>
			</g>
			<path class="st9" d="M578.4,59h0.4c2.1-2.8,3-3.2,6.9-2.5l3.7,0.5c2.8,0.5,6.7-2.3,8.4-3.3c3.5,0,5.3-0.1,7.4-3.4
				c0-0.1,0.2-0.3,0.3-0.3c7-6.2,6.1-7.2,9.6-14.8c0.3-0.6,0.5-3.4,0.5-3.4l-1.7-2.1l-0.7-1.9l-0.4-1.4l-0.3-4.4l0.2-2.6l-1.2-1.3
				l-0.2-2.8l1.5-3.8c2.3,0.1,7.7,0.9,7.7,0.9s1.7-1.5,2.7-2.4l3.4-2.7c1.3-1,2.3-2.4,3.5-3.4l2.1-2.4c0,2,0,7.1,0,7.1l7.2,7.9
				c0,0,0.7,0.7,0.8,1.2c0.2,0.7-0.5,0.6-0.2,2.1c0.1,0.5,0.9,1.1,1.2,1.6l0.2,0.5c0.2,0.5,0,1,0,1.5c0,0.9,0.5,1.5,0.6,2.4
				c0,0.3-0.2,0.8-0.4,1.1c0.1,0.9,0.2,1.9-0.1,2.7l0.2,0.5c0.9,0.2,0.9,1.9,1.6,3.2l0.4,0l0.7-0.8l0.5,1.6l0.3,0.4l0.5,0l0.7-0.4
				l0.2,0c1.7,0.9,0.9,0.1,2.9,0.7c0.3,0.1,0.9,0.1,1.2,0.3c1.3,0.4,1.7,0.7,2.5,1.7c0.4,0.3,3.1,2.2,3.1,2.7c0,0.4-5.3,5.2-5.2,6.9
				c0.1,1.7,5.3,4.8,4.9,5.4c0.6,0.9-1.3,2.1-0.9,3.4c0.6,0.9,1.6,0.9,2,1.7c0.4,1-0.3,2.5-0.3,3.6c0,1.3,0.1,2.7,0.4,4
				c0.2,0.7,0.7,1.2,0.8,2c0.1,0.5,1.2,0.6,1.3,1c0.2,1.4-0.4,2.7-0.3,4.1c0.1,1.6-1.2,2.5-0.1,3.9c-0.3,0.5-0.9,0-1.5,1.8
				c0,0.9,1.4,0.5,1.8,1c0.2,0.6,1.3,3.9,1.4,4.6c0.1,0.5,0.4,1.1,0.5,1.6c0.1,0.6,0.3,1.2,0.4,1.7c0.3,0.8,0.8,1.6,1.2,2.3
				c0.5,0.7,0.7,1.5,1,2.2l0,0.6c0.2,0.5,1,4,0.9,4.5c-0.4,1.1-1.9,2-2,2.7c0,0.6,1.4,2.1,1.9,2.6c0.9,0.9,0.9,3.4,1.8,4.8
				c1.1,1.7,4.1,2.6,5.8,3.7c1.1,0.9,2,2.1,2.9,3.1c0.8,0.9,1,1.6,2.1,2.3c0.6,0.4,1.3,1.4,1.7,1.9c0.6,0.8,2.7,3.1,3.3,4
				c0.5,0.9-0.1-0.1,0.4,0.8c0.6,0.5,3.6,1.2,4.9,2.1c1.3,0.9,7.1,6.7,7.1,6.7l0.6,1.1l-0.6,0.6l0.3,0.8l-2.2,0.5l-6.5,10.2l-1,0.9
				l-1.8,2.3c-0.1,0.5-0.1,1.5-0.4,1.9l-0.5,0.2c-0.3,0.5-0.5,1.2-0.6,1.8c-0.4,0.2-0.7,0.1-1,0.2c-1.4,0.3-3,1.4-3.1,3
				c0.4,0.2,1.1,0.3,1.5,0.3c2,1.7,3.2,2.4,3.9,5.1l4.4,1.4c0.2,0.9-0.9,1.8-0.9,2.7l1.4,2c0.5,1-2.1,7.4-2.5,8.9
				c-1.7,0-3.8-0.1-5.5,0.4c-0.9,0.2-1.5,1-2.4,1.2c-1.7,0.3-2.2,0.4-3.9,0.9c-0.2,0.4-0.4,2-0.4,2.4c1.5,0.3,3.8,1.1,4.3,1.8
				c1.2,2.1-0.7,7-1.2,6.6c0.5-0.3,3.5,4.8,2.9,5.7l-0.1,1.5c-0.7,1.5-2.2,1.7-4.2,1.7c-0.3,0.6,0.2,4.3,0,4.9
				c0.2,0.5,0-0.1,0.2,0.4c0.7,0.7,0.9,0.7,1.8,1.8c2,2.3,2.7,2.6,5.2,3.9c0.9,0.4,1.7,1.1,2.6,1.4c0.6,0.3,1.8,0.3,2.2,0.8
				c0.8,0.9,1.1,2.5,1.2,2.6c0.4-0.1,1.3-0.2,1.7-0.1c0.4,0.5,1.3,2,1.7,2.2l0.8,0l0.2,0.6c-1.3,2.4-2.7,1.4-3.7,2
				c-0.2,0.2-0.7,0.9-0.9,1.2c-0.5,1,0.1,2.8-2.1,2.6c-0.1,0.2,0,0.5,0,0.7c0,0.7,0.4,1.3,0.5,1.9c0.1,1,0.1,2.1,0.1,3.1
				c-0.1,3.7-0.8,3.8,0.9,7.1c0.1,0.1,0.5,0.8,0.7,1c1.1,0.8,5.3,0.7,6.5,0.7c0.7,1.5,1.7,3.3,2.6,4.7c0.8,1.2,1.6,2.5,2.3,3.6
				c1.9,3.1,7.8,14,8.5,16.2c0,0.1,0,6.2,0,6.8c0,4.6-0.1,9.2-0.3,13.8c1.3,1.6,3,3.4,4,5.1c0.7,1.3,0.6,3.1,1.5,4.3
				c1.7,2.5,1.8,0.4,1.7,4.2c-0.2,4-0.5,8.1-0.4,12c0.2,0.2,3,2.7,3.2,2.9c0.2,0.4,0.2,0.8,0.6,1.2c0.5,0.1,1.8,0.4,2.1,0.8l0.2,1.6
				c3,2.6-0.3,3.7,0.5,6.3c0.1,0.4,0.5,0.8,0.7,1.3c1.4,3.3,1.5,3.9,0.4,7.1c-0.3,0.8-0.3,1.6-0.8,2.3c0.5,2.3,1.5,4.5,3,6.4
				c0.2,1.9,0.3,3.7,0.4,5.6c0.8,1.1,1.7,2.2,2.4,3.4c-0.6,2.7-2.6,9.6-2.2,12.3c0.2,1.1,1.2,5.6,0.6,6.8l0.2,0.3
				c0.9,0.4,1.8,0.6,2.9,0.5c0.6,0.1,1.8,2.2,1.8,2.2l13.5,1.1l23.2-5.7"/>
			<path class="st9" d="M767.6,372.7l11,12.9l-19.7,70.2l-56.2,25.5c0,0-2.2,4.5-2.6,5.2c-2.6,4.6-3.3-2.1-5.2,2
				c-0.8,1.8-0.7,2.8-1.1,3.9c-0.3,0.6-2.1,1.9-3,3.4c-0.3,0.6,1.6,2.8,0.9,3.1c-0.3,0-0.7-0.1-1,0c-0.4,0.3-2,3.1-2.2,3.7
				c-0.4,1.1-0.7,1.4-0.7,1.5l-0.5,3.9c-0.5,3.7,2.3,1.6,5.1,5.7l0.2,0.2c1.8,2.2,1.5,3.9,2.8,6.4c0.4,0.7-0.1,3.6,0.6,3.9
				c0,1.3,2.7,3.8,3.4,4.9c-1.1,1.1-2.5,1.7-4,2.3c-1.1-0.5-1.7,0-2.9,0.3c-1,0.7-1.7,0.3-2.4,1.6c0,1,0,2.1,0,3.1
				c-0.7,0.6-1.7,1.6-2.1,2.8l0.3,2.5l-0.6,1.1c-1,1.9,0.2-0.2-2.3,4c-0.5,0.8-1.3,1.6-2.3,1.9c-0.3,0.3-0.8,1.2-0.8,1.7
				c1.8,3.5,2.7,1.7,1.7,6.1c0.7,1.2,1.8,2,2.6,3.1c-0.6,0.4-1,2.6-1.1,3.3c0.3,1.5,3.9,4.5,3.9,4.5l7.7,34.4l-0.2,0.2
				c0,0-10.3,7.5-10.5,7.7c-0.6,4.5-0.8,9.2-1,13.7c5.2,9,10.9,17.7,16.7,26.3c0.6,0.2,1.6,0.7,1.9,1.3c-1.1,1.5-4.1,4.2-4,6.1
				l0.9,1.3c-0.4,0.8-2.6,3.9-3.2,4.2c-2.8,0.5-5-0.6-8.5,0.6c-1.5,1.8-3,4.2-3.5,6.5c-0.1,0.6-0.1,1.3-0.3,1.9l-1.2,0
				c0,0-1.4-1.1-1.8-1c-2.1-0.2-3.9-3.9-4.1-5.7l-1.2-0.4c-1.5,0.9-3.5,0.5-5,1.4c-1.7,2.6-5.5,5.9-4.9,9.4c0.2,1.1,1.4,2.3,1.9,3.3
				c-0.3,0.8-1.6,1.2-2.1,2c-0.4,0.6-1.9,4.4-2.4,5.5c-1.4,3.1-4,9.5-5.7,12.1c-1.5,0.5-3.3,3-4.1,4.3c0.2,1.1,0.5,2.2,0.4,3.3
				l0.4,0.6l-0.1,1l-0.8,0.7c-0.2,3.2-1.6,6.7-2.3,9.9c-0.1,0.4,0,0.9-0.1,1.2c-0.4,1.3-2,2.5-3,3.3c-0.2,0.7-0.2,1.4-0.6,2
				c-0.5,0.6-2,0.5-2.7,0.4c-2.5,1.1-1.9,2.8-2.6,4.8l-1.1,0.7c-0.1,0.8-0.2,1.7-0.2,2.5c-0.5,0.4-1.3,2.5-1.9,3.2
				c-0.9,1.1-1.3,0.9-2.3,1.5c-0.2,0.8-0.9,1.9-1.2,2.7l-0.6,0.2c-0.9-0.6-2.5-2.3-3.4-2.2c-0.9,1-1.9,2.6-0.9,3.8
				c-1,1.8-0.1,5.3-2.4,6.1c-0.7,0-1.5-0.1-2.2,0.1c-1.2,1.1-1.9,2.5-3,3.7c-0.8,0.1-1.8,0.1-2.6,0l-0.3,0.3
				c-0.2,0.6,0.5,1.7,0.7,2.3c-0.5,0.6-1.2,1-1.6,1.6c-0.6,0.8,0.8,4.6,0.7,5.8c-0.7,1.3-1.3,2.8-2.1,4c-0.1,0.2-0.4,0.3-0.5,0.5
				c-0.1,0.1-1.6,6.3-1.6,6.5c0,0.7,1.6,4.3,2,6.1c-0.7,1.9-1.8,4.1-2.8,5.9c-0.5,0.8-1.4,1.7-2,2.5l-0.8-0.3c0,0.8,0.5,1.5,0.5,2.2
				c-0.1,1-0.2,3.2-0.2,3.2c-2.2,1.9-0.7,6.6-1.3,9.2l-0.7,0.8c-1.1,0.5-2.3,0-3.5,0c-0.8,0-3.7,2.4-4.5,3c-0.3-0.1-0.8,0.1-1.1,0.3
				c0,0.4,0.4,1.4,0.6,1.9c-0.4,1.2-0.6,2.5-0.8,3.8c-0.9,0.3-1.9,0.7-2.7,1.1c-0.7,2.3-1,3.4-1,5.7l0.5,0.8
				c1.4,0.3,2.3,2.6,1.6,3.8c0.6,1.5,0.7,4,1.6,5.3c-0.2,0.2-0.3,0.5-0.4,0.8c0.2,0.5,0.6,1,1,1.4c0.1,1-0.4,2.1-0.3,3.2
				c0.1,0.8,0.5,1.4,0.5,2.2c0.6,0.7,3.5,4.8,3.5,5.5c-0.4,0.3-0.6,0.4-0.9,0.8c0.1,0.4,0.6,0.9,0.5,1.4c-0.4,0.8-1.3,2-1.8,2.7
				l-0.1,0.8c0.3,0.6,1,0.9,1.3,1.6c0.1,0.7-0.3,1.6,0,2.2c0.5,1.3,2.2,1.9,0.7,3.5c0.2,0.3,0.3,0.8,0.3,1.2c-0.1,0.4-1.1,1.7-1,2
				c-1,1.1-1.1,3.3-1.4,4.7c0,0.1,0.6,2.3,0.6,2.5c-0.6,1.6-2.5,2.7-0.3,4c4.9-0.3,10.3-1.3,7.1,6.3c0,0.4-1,2.1-1.6,2.4l-0.2,0
				c0,0.1-0.8,0.1-0.9,0.1c-1.1,1.9-1.6,3.2-2.4,5.1c-0.1,0-0.4,0.4-0.5,0.5c-0.4,0.9-0.5,2.1-1.1,2.9c-0.6,0.9-3.2,3.4-4.5,3.5
				c-1.8,0.2-7.4-2.7-9.1-3.8l-0.7,0.2l-0.2,0.5c0.4,1.1,1.6,2.8,1.8,3.8c0.1,0.5,0.1,1,0.2,1.4c-0.2,0.3-0.4,1.2-0.3,1.5
				c-2,1.6-3.2,5.1-4.1,7.4c-0.6,1.8-1.5,3.6-1.6,5.5c-0.1,1.5,0.9,3,0.3,4.5c-0.7,0.7-1.8,1.8-2.3,2.7c-1.5,3.2-1.4,5.7-2.6,9.1
				c0,0.1-0.1,0.2-0.2,0.3c-0.4,3.3,1.4,3.1,0.3,7.8l0.2,0.4c0.4,0.3,1,0,1.4,0.3l0.3,0.5c-0.2,0.6-1.8,1.3-2.3,1.6
				c-0.9,0.7-0.6,2.2-1.5,3.1c-2.4,0.4-2,0.9-2.2,2.7c-0.1,0.5-0.6,0.9-0.8,1.3c-0.2,0.3-0.2,1-0.5,1.2l-0.3,0
				c-0.4-0.4-0.2-1-0.4-1.5c-0.5-1.3-1.3-2.9-2.2-4l-0.3-0.1l-0.4,0.1c-3,5.1-3.3,0.5-3.6,9c-0.1,2.9-1.7,5.6-1.4,8.4
				c0.3,3.8,0.7,6-1.4,9.1c-0.2,1.2,0.4,1.6,0.5,2.5c0.1,0.9-0.2,1.8,0,2.8c0.6,2.6,1.2,3.3,2.4,5.4c0.6,1,0.5,2.4,0.9,3.4l0.3,0.1
				c0.5-0.1,0.6-0.2,1.1-0.1c1.9,1.9,2,7.3,3.2,8.9c0.6,0.8,1.9,1.5,2.7,1.9c0.3,0.2,1.9,0.9,2.5,1c4.9-0.3,4.2-0.6,7.4,2.9
				c3.5,3.8,0,3.6-1.4,5.4c-0.4,0.5-0.9,1.9-1.6,2.1c-3.4,1-2.8,0.1-3.6,0.1c-0.9-1-1.6-1.3-2.6-0.2l-0.1,0.5l0.1,0.3
				c0.1,0.2,2.1,1,2.6,1.7c0,0.3-0.1,0.6-0.3,0.8c0.2,1,1.1,2.8,2.3,2.9c1.2,1.3-0.3,2.5-0.3,3.7c0,1.1,0.2,2.5-0.3,3.6
				c-0.1,0.4-0.5,0.8-0.4,1.2c0,0.3,4,3,4.5,3.3c3.1,2.2,0.2,5.2,0.3,7.2c0,0.2,0.4,1.3,0.6,1.5c0.7,0.5,1.6,0.5,2.3,0.7
				c3.3,1.2,2.5,2.7,3.4,5.3c0.3,0.9,0.5,2.6-0.3,3.3c-3.7,3-0.8,3.1-0.6,6.7c0,1.1-0.2,2.9,0.2,3.9c0.6,1.7,2,2.6,2.2,4.5
				c1,0.8,0.7,0,1.2,1.4c0.3,0.3,1.1,0.7,1.5,0.8c0.5,0.3,0.1,1.8,0.6,2.3c1.3,1.4,3.6,1,3,3.6c-0.2,0.9-1.3,2.5-1.8,3.3
				c0,0.2,0.1,1.6,0.2,1.7c-0.8,1.9-0.9,3.1-2.7,3.9c-0.2,0.1-1.2,0.5-1.2,0.9c1,1.9,1.3,3.9,1.5,6c0.1,0.5-0.4,1.2-0.2,1.8
				c0.5,1.3,1.4,2.3,1.7,3.8c0.3,1.4-0.7,6.4,1.8,6.1c3.3-1.5,3.6-3.8,5-4.8c-0.4,1.4,3.4,2.6,5.1,2.2c1.2,1.4,3.7,3.4,3.1,5.4
				c0.8,1.1-0.5,4-1.1,5.5c-1,2.7-2.8,3.7-3.3,5.6c-0.4,1.5-1.7,3-1.9,4.5c-0.1,1.1,0.2,2.4,0.2,3.5c0,1.3,1.6,3.4,1.3,4.7
				c-0.3,1.5-2.3,3.2-2.6,5.2c-0.4,2.8-0.4-1.6,2.7,7.3c0.2,0.6-1.5,3.7-1.3,4.7c0.3,1.2,2,2.1,2.1,2.7c0.5,2.6-1.4,3.8-1.4,4.8
				c0,0.6,0.6,1.5,0.6,2c0,0.5,0.5,1.2,0.3,2.4c2.3,2,3.9,2.7,3.2,5.9c0.2,0.2,0.4,0.5,0.4,0.8c-0.3,1.5-3.6,2.7-4.7,3.5l-0.5,1.2
				l-0.6,0.2c-0.4,0-2.8-2.6-3.2-2.9l-0.4-0.1c-0.7,0.2-4.3,2.8-4.6,2.8c-0.3,0-0.9-0.1-1.2,0l-0.2,0.3c0,0.1,0.1,0.2,0.1,0.3
				c2.6,4.2,0.6,3.7,0.6,5.1c0,0.5,0.9,1.8,1.1,2.4c-0.3,0.7-1.5,1.8-2.5,1.9c-0.7,2.6-2.5,2.5-4.3,3.9c-0.5,0.4-0.7,1.6-0.9,2.2
				c-0.6,1.8-1.9,2.9-3,4.4c-0.5,0.7-1.8,2.5-2,3.3c-0.1,0.6,0.6,2.9-0.1,3.3c-3.4,1.4-0.9,1.8-2.4,3.3c-1.2,0.2-3.3,0.9-2.6,2.5
				c0.2,0.2,2.4,1.6,3,1.8c0.2,0.3,0.1,0.9,0,1.2c-0.7,3.5-4.3,7.4-4.5,8.3c-0.3,1.5-0.1,2.9-0.8,4.3l-0.1,0.2
				c-2.1,4.2,0.7,7.9-0.4,9.7c-0.3,0.4-0.9,0.6-1.1,1c-0.5,0.6-0.7,1.3-1.4,1.9c-3.3,2.8-7.2-0.4-8.9,1.9c-0.4,0.5-0.3,1.2-0.4,1.8
				c-0.2,0.7-1.2,1.3-0.9,2.2c0.3,0.6,0.9,1.1,1.4,1.6c3,2.7,6.3-0.5,8.1,4.2c0.1,0.2-0.5,1.4-0.6,1.6c-0.7,1.5-1.1,3-0.8,4.7
				c0.4,2.1,3.4,3.4,3.1,5c-0.9,1.3-0.7,1.2-1.2,2.1c0.4,0.7,1.2,2.4,1.4,3.1l-0.2,0.5c-0.2,0.1-0.4,0.5-0.5,0.7
				c-0.9,1.8,0.2,3.5,1.1,5c1.5,2.7,0.9,4.7,1.7,6.3c0.3,0.6,0.9,1.1,1.3,1.7c0.1,0.1,0.2,0.3,0.2,0.5c-0.1,0.4-0.5,0.5-0.6,0.9
				c-2.3,0.4-2.4,1.5-3.5,3.1c-0.5,0.7-1.5,1.6-1.6,2.5c0,0.1,0,0.4,0.1,0.5c0.6,0.3,2.1,0.1,2.3,0.4c0.5,0.9-1.5,1.4-1.3,2.6
				c0.2,1.7,2.1,3.2,1.9,4.9c-0.1,0.6-1.8,2.1-2.1,3c-0.6,2.2-0.1,4-1.5,5.8l-0.1,0.2c-2.5,1.8-5.3-2.7-7.8-2.9
				c-0.2,0.1-0.4,0.2-0.6,0.4c-0.1,0.4,0.1,2.5,0,2.6c-1.4,1.8-1.5,1.4-2.5,2.4c-1.4,1.5,0.4,2-2.9,2.3l-0.2,0
				c-0.4,0.4-1.6,0.5-1.6,1.2c-0.1,0.7,0.6,1.5,0.5,2.7c-0.1,0.6-1.5,1.6-0.9,2.5c0.3,0.4,1.3,2,1.7,2.2c0.8,3-2.7,4.4-4.6,2.4
				l-1-0.1c-0.2,0.3-0.8,0.7-1.1,1l-0.4-0.1c-0.2-0.3-0.7-0.9-1.1-1.1c-0.7-0.1-3.9-0.8-3.9-0.8c-0.2,0-0.4,0.1-0.6,0.2l-0.1,0.5
				c1.8,3.3-1.2,4.8-3.7,6.2c-1.8-0.2-2.9-2.3-4.7-1.3c0,0.1-0.2,0.3-0.2,0.4c-0.3,1.8-0.9,6.9-0.7,8.6c0.1,1.1,1.2,2.6,1.7,3.5
				c0.3,0.6-1.1,2.2-1.4,2.5c-0.6,0.1-0.8,0.8-1.6,0.4c-0.7-0.7-0.6-1.8-1.1-2.2c-0.3-0.2-0.8-0.3-1.1,0c-0.4,0.3-0.4,3.4-0.4,4
				c0,1-1,4.6-0.6,5.1c-0.7,2.5-3.5,2.7-2.2,4.7c0.7,0.1,1.2-0.4,1.9-0.3l0.4,0.2l0.1,0.5c-0.4,0.8-0.9,1.7-0.9,2.6
				c-0.1,1,3.7,1.5,2,3.7c-0.2,0.3-0.5,0.7-0.8,0.9c-1.3,0.2-3.3-1.4-4.6-0.3l-0.1,0.4l0.1,0.4c0.7,0.5,1.8,1,2.6,1.3
				c2.2,3.6-0.5,4.1,3.2,6.4c0.2,0.1,0.6,0.3,0.5,0.6c-0.6,1.1-2.6,1.4-3,2.4c-0.8,2.6,1.9,1.9-1.9,7.6c-0.5,0.8-1.5,1.2-2,2
				c-0.8,1.2,0.4,2.4,0.7,3.4c0.3,0.9,0.5,1.9,0.7,2.8l0,0.2c0.6,1.1,2.8,2.8,3.1,3.4c0.5,1.2,1.3,2.4,0.9,3.8
				c-0.4,1.1-2.2,1.8-1.9,3.2c0.4,0.7,1,1.3,1.2,2.1c0.9,2.6-2.1,2.5-2.9,3.7c-0.3,0.5-0.6,1.1-0.9,1.7c-0.1,0.1-0.1,0.3-0.1,0.4
				c-0.1,0.4-0.5,2.2-0.5,2.5c0.1,0.9,2.4,4.6,2.9,5.2c0,0.6-0.2,1.2-0.1,1.8c0.2,0.8,0.9,1.5,1.1,2.4c-0.6,0.5-2.1,1-2.1,1.4
				l2.5,1.3c1.9,0.9,2.4,4.8,3.2,6.2c0.3,0.6,2.5,2.8,2.6,3.2c0.4,1.4,0.8,3,1.5,4.2c0.4,0.6,2.4,1.9,2.4,2.4
				c-0.1,1-1.8,1.3-2.2,2.2c-0.4,1.6,1.5,1.7,1.5,2.8c0,1.9-1.1,3.7-1.2,5.6c0,1.6,1.1,3.3,1.1,5c0.1,3.1,0.2,5.7,2.4,8
				c0.5,0.6,1.6,0.7,2.1,1.2c0.8,0.9,1,1.8,2,2.6c1.7,1.3,3.6,1.8,4.4,4.1c0.9,2.3-4.1,5.2-4.8,7.1c-0.3,0.8,0.7,1.3,0.4,2.3
				c-1.2,1.8-3.1,4.8-5.6,4.5c-0.5-0.1-2.7-0.8-3.3-1.1c-0.4-0.1-0.9-0.2-1.2-0.5c-1.8-0.3-4.3,1.8-5.8,2.7
				c-0.9,0.5-2.8,1.7-3.4,2.3c-0.7,0.3-1.8-0.6-2.7-0.5c-0.4,0.3,0.2,1.8-1.5,3.1c-1.6,1.1-8.7,4.1-9.5,5.3c-0.2,0.4,0.6,1.7,0.7,2
				c-0.2,0.2-0.5,0.8-0.5,1.1c0.1,0.3,0.6,0.8,0.6,1.1c-0.1,0.2,0,0.7,0.1,0.9c-0.4,0.9-1,1.2-1.5,1.9c-0.3,1,0.9,2.6,1.2,3.7
				c0.2,1-0.4,2.3-0.2,3.5c0.4,2.2,1.4,3,1.9,4.6c0.3,0.9-0.4,2.2-0.6,3.1c-0.2,0.8,0.7,1.2,0.7,2.1c-0.1,2.1-2.1,5.1-4,5.9
				c-0.2,0.2-0.3,0.6-0.2,0.8c-0.4,0.5-1.1,1.3-0.8,2c0.5,0.5,2,1,1.3,2c-0.2,0.3-0.5,0.4-0.7,0.7c-0.3,0.8,0,1.9-0.6,2.6
				c-0.3,0.3-3.4,1-2.1,3c0.2,0.2,2,1.2,2.2,1.2c1.2,1.1,0.6,3.9-0.7,4.6c-1-0.1-3-0.1-4-0.2c-1.1-0.1-2.5,0.8-3.6,0.5l-0.3-0.2
				c-1.3-1.9-1.5-3.1-4-3.5c-1.3-0.2-1.3,2.6-1.4,3.3c-0.1,0.2-0.4,0.6-0.6,0.7c-0.8,1.8,2.1,2.1,2.1,3.6c-0.4,0.8-1.9,1.9-1.9,2.7
				c0.1,0.7,1.2,1.6,1.5,2.4c0.5,1.5-0.8,5.3,0.3,6.3c0.1,0.1,0.2,0.2,0.4,0.3c0.1,0.1,0.2,0.1,0.3,0.1c0.5,0,1.8-0.5,2.1-0.1
				c0.1,0.3,0,0.7,0,1.1l0.1,0.3c0.6,0.3,2.5,0.9,2.6,1.4c0,0.8-0.4,1.7-0.6,2.5c0,0.2-0.9,2.1-1.1,2.2c-0.1,0.1-0.8,0.3-0.8,0.4
				c-0.9,1-1.2,1.8-2.3,2.6c-0.2,0.2-0.5,0.7-0.8,1c-0.5,1.3,1.2,2.5,1.2,3.8c-0.2,0.5-0.3,1-0.4,1.5c-0.6,0.3-1.1,0.7-1.7,0.7
				c-0.8,0.1-1.6-0.7-2.3-1c-0.6-0.3-1.4-0.3-1.9-0.5c-0.3-0.2-0.7-0.6-1-0.9c-1-0.2-2.1,0.7-1.8,1.7l0.3,0.2
				c0.2-0.2,0.6-0.2,0.8-0.2l0.2,0.2c0.6,1.7-1.1,3.4-1.2,4.4c0.1,0.4,1,1.3,1,1.5c-0.2,0.8-1.5,1.3-1.8,2.1l0.1,0.3
				c0.4,0.4,1.5,1,2,1.1c0.3,0.5,0.5,1.1,0.9,1.6c0.3,0.4,0.8,0.4,1.1,0.8c0.3,0.4,0.2,1.1,0.4,1.7c0.4,0.5,1.2,0.6,1.7,0.2
				c0.3-0.3,0.4-1.1,0.5-1.6l0.3-0.1c3,1.9,2,1.7,3.1,4.7c0.1,0.4,0.5,0.8,0.4,1.3c-0.3,0.8-1.5,0.9-1.7,1.3l-0.2,0.9
				c-0.6,0.6-1.7,2.3-2,2.5c-2.5,0.4-4.1-5-5.7-0.3c-0.2,0.6-0.4,1.1-0.6,1.7c-0.6,2.1-0.9,4.1-1.3,6.3c0,0.2-0.1,0.7-0.3,0.8
				c-0.5-0.2-1-0.4-1.5-0.6l-0.2,0.3c0.7,1,2,1.6,2.6,2.6c2,3.4-4.5,6.9-6.3,9.1c-0.3,1.7,1.4,3.3,2.1,4.7c0.4,0.8,0.1,1.7,0.4,2.4
				c0.9,2,3.5,6,3,8.2c-0.6,0.9-1.7,0.5-2.4,1.2l-0.1,0.4c0.3,1.3,4,3.9,3.9,5.6c-1.2,1.9-1,1.1-0.6,3.3c0,0.2-0.1,3.6-0.3,3.9
				c0,0-1.2,0-1.5-0.2l-0.4,0.1l-0.2,0.4c0,1.2,1.8,3.5,2.1,5.3c0.3,1.3-1.6,3.5-1.5,4.9c-0.6,0.6-1.4,1.3-2.1,1.8l-0.1,0.8
				c2,2.2,1.3,0.8,2.2,3.7c0.2,0.5,0.5,1,0.7,1.5c0.6,1.9-0.5,3.9,0.2,6.1c0.4,1.2,1.8,1.8,2,3c-0.1,0.3-1.7,1.7-2.1,2.1
				c0,0.2,0,0.4,0,0.6c0.2,1.4,1.3,1.5,1.6,2.9c0.3,1.1-0.2,2.8,0.1,3.6c0,0,1.1-0.4,1.7-0.5c0.9,1.4,1.3,4.8,2.1,6.6
				c0.3,0.7,0.9,1.1,1,2.1c-1.3,1.7-0.9,2.8-0.7,4.8l0.4,4.3l0.3,2.9l0.1,0.9l-0.1,0.4l2.1,0.9l-0.2,0.8l-0.4,0.6l-0.2,0.7l-0.1,0.6
				l0.9,1.1l0.1,1.5l-1.4,0.4l-1.6-0.1l-0.2,0.9l-0.3,0.3h-0.4l-0.4-0.2h-0.5l-0.9,0.8l-1,0.1l-0.6-0.3l-0.7,0.3l-0.8-0.3l-0.5,0.3
				l-0.1,0.6l-0.9,0.9l-0.5,0.2l-0.4,0.4l-0.7,0l-1.1-0.9l-0.3-0.6l-0.5-0.2l0.3-0.5l-0.5-0.2l0.1-0.8l-0.4-0.2l-0.4,0.5l-1-0.4
				l-1.5,0.1l-0.4-0.7l-0.4-0.1l-0.2-0.4l-0.3-0.1l-0.3,0.3l-0.9-0.4l-0.1-0.5l-0.5,0.1l-0.4,0l0.2,0.5l-0.5,0.2l-0.4,0.3l0,0.2
				l0.7,0l0.2,0.4l-0.1,0.2l0.1,0.4l-1-0.2l-0.3,0.3l-0.7,0.1l-0.2-0.2l-0.9,0l-0.5,0.7l-0.4-0.2l-0.4-0.3l-2-0.7l-0.7,1.2l-0.5,0.2
				l0.4,1.2l0.6,0.5l1.1,0.6v0.8l-0.5,0.5l0,0.5l0.7,1.9l-0.9,0.3l0.1,0.6l0.5,0.7l0.3,0.1v0.4l0.4,0.3l0.6,0.6l0.1,0.3l0.1,0.3
				l0.2,0.4l0.4,0.3l0.2,0.7l-0.4,0.4l-0.4,0.2l0,0.7l-0.1,0.5l0.3,0.4l0.2,0.2l0,0.5l-0.2,0.5l0.4,0.4l-0.1,0.6l0,0.3l0.4,0.1
				l0.4,0.5l0.4,0.1l0.5-0.1l0.8-0.1l0.6-0.7l0.2-0.1l0.4,0.5l0.4,0.3l1.3,0.2l0.7,0.6l0,0.3l-0.4,0.4l0,0.5l0.2,0.3l-0.5,1
				l-0.3,0.4l0.2,0.2l0.4,0l0.2,0.3l0,0.6l-0.3,0.4l0.9,1.4l0.4,0.5l-0.4,0.4l-0.7,0.3l-0.1,1.1l-0.9,1.4l-0.3,0.1l-0.1,1.5
				l-0.6,0.5l-0.6-0.3l-0.2,0l-1.4,1.4l0.4,0.9l-1.4,0.2l0.1,1.3l-0.3,0.5h0.9l0.7,0.7l-1.5,1.6l0,0.6l-0.5,0l-0.4,0.1l0.2,0.3
				l-1.4,0.1l-1-0.8l-0.1,1.3l-0.4,0.4l0.8,0.5l1.8,0.5l0,0.9l0.3,0.4l-0.4,0.5l-0.3-0.1l-0.1,0.3l0.1,0.5l0.6,0.5l0.1,1.1l0.1,0.8
				l-0.8,0.5l0.3,0.6l-0.6,0.4l-1.1,0.1l0.7,1.6l-0.4,0.4l0.4,0.2l0.5,1.5l0.8,0.2l-0.2,1l1.1,0.5v0.4l-0.7,0.1l-0.9,1l1.7,1.6
				l-0.1,0.7l0.6,0.3l0.3-0.1l0.9,1.2l0.4-0.5l0.4,0.1l0.9,1.9l0.8,0.8l0.2,0.9l0.5,0.6l0.6,0.3l1.1,1.5l0.7-0.5l0.6,0.2l0.4,0.7
				l1.1-0.4l1,0.3l0.5,0.6l-0.1,2l-0.4,0.6l3.1,1.1l0.3,1.2l2,0.3l-0.5,0.7l1.7,0.2l1.4,0.4l1.6,0.8l1.5-0.1l0.5,0.9l0.9,0.2
				l0.3,1.6l-0.9,1.5c-0.6,1.7-1,2.8,0.2,4.2c0.1,0.5-0.2,2.7-0.5,3l-0.3,0c-1.8-1.9-1.9-0.6-3.7-0.5c-2.2,3.1-4.4,0.7-5.1,1
				c-1,0.4-0.7,2.3-0.3,3c-0.6,0.6-1.5,1.2-2.2,1.7c0,0.3,0.3,0.6,0.5,0.8c0.4,0.1,0.7,0.3,1,0.5l0.1,0.3c-0.3,0.8-1.9,1.7-1.7,2.6
				c0.2,0.4,3.2,0.2,4.4,1c0.1,0.4,0.5,0.6,0.8,0.9c0.4,1.4-1.8,3.3-1.1,4.3c1,1.4,4.7-0.8,5.5-0.1c0.6,0.7,0.8,3.3,2.2,2.7
				c0.2-0.2,1.1-0.1,1.1-0.1l1,1.4l0,1.3l0.2,0.3c2.2,0.5,4.4-1.1,6.1,1.3c0.4,0.5,0.5,1.1,0.3,1.7c-0.2,0.6-0.8,1.3-0.6,1.3
				l-0.1,0.6c-1.7,0.2-3.5,1.1-5,1.6c-1.3,0.5-3.6,3.9-4.1,5.1c-0.3,0.7-0.2,1.3-0.4,2.1c0.2,0.5,0.5,1.1,1,1.4
				c0.8,0.3,1.7,0.1,2.6,0.3c0,1-0.4,2,0,2.9c3.4,0.9,2.5,3.1,1.2,5.3c-0.3,0.5-0.4,1.3-0.9,1.8c-0.7,0.7-1.8,1-2.4,1.9
				c-0.9,1.3-1.5,3-2.9,3.9c-1.1,0.6-2.5,0.4-3.6,1l-0.3,1.1c0.2,1.4,3.5,5.3,3.5,6.1c0,0.9-0.5,1.5-1,2.2c-1.3,2.1-0.3,2.1,0.8,3.7
				c-0.7,4,1.1,1.1-1.5,3c-0.2,0.5,0.1,1,0.2,1.5c0.9,3,1.6,2.8,3.8,2c0.3-0.5,1.4-0.8,2-0.8c1.1-0.1,2.5,1.3,3.7,1.4
				c1,0.1,1.9-0.2,2.8-0.2c1.3,0,2.6,0.2,3.9,0.1c2.4-0.1,4.9-0.6,7.3-0.5c2.8,0,3.8,1.8,5.2,1.9c2.1,0.2,6.5-0.3,8.5,0.5
				c2.3,0.9,3,2,3.9,4.1c0.3,0.6,1.1,0.9,1.5,1.4c0.2,0.3,0.3,0.8,0.5,1c-0.2,0.6-0.9,3.6-1.2,3.9c-0.7,0.4-3.6,0.2-4.4,0.3
				c-1.1,0.2-1.1,0.8-1.9,1.3c-0.3,1.3-1,1.6-1.4,2.6c-0.6,1.7,2.5,3.8,2.8,5.5c0.1,0.4-0.2,0.9-0.2,1.3c-1.8,2.9-3,5-6.8,4.8
				c-0.8,0-2-0.2-2.8-0.6c-1.1-0.7-3.6-2.1-4.6-3c-0.4-0.4-2.2-1.4-2.3-1.6c-3.1-0.9-6.6,2.9-9.7,3.2c-3.1,0.3-6.1-2.3-8.2-2.1
				c-1.3,0.1-2.1,1-2.5,2.2c-1.4,1.2-3.2-0.1-4.6-0.4c-1-0.3-1.9,0.6-3.4,0.3c-1.7-0.4-3.3-1.1-4.7-1.9c-0.3-0.2-0.6-0.5-1.1-0.5
				c-0.6,0-1.1,0.8-1.3,1.4c4.2,1.6,2.7,3.4,2,5.1c-0.1,0.7-0.9,1-1,1.7c0.6,1.8,2.1,1.7,3.2,1.6c2.5-0.3,4.2,1.7,6.1,3.2
				c2,0.2,3-0.8,4.7-1.1c0.5-0.1,1.1,0.4,1.6,0.3c0.6-0.1,1.2-0.5,1.9-0.3c0.7,0.2,1.4,1.6,2.3,2.1c0.5,0.3,1.1,0.2,1.7,0.3
				c0.5,0.1,0.8,0.5,1.3,0.5c3.8,0.4,4.3-1.5,7.3,2.4c0.9,1.2,1.5,2.7,2.5,3.9c0.1,0.1,0.8,0.9,0.8,1.1c0.3,0.9-0.1,1.9,0.1,2.3
				c0.4,0.9,1.3,1.1,1.8,1.9c0.3,0.4,0.4,1,0.9,1.3c0.8,0.1,2.9,1.2,3.6,1.1c1.3,0.8,5.2,7.1,4.8,8.7c-0.9,1-1.7,1.4-2.6,2.2
				c-0.4,0.4-0.7,1-1.1,1.4c-2,1.7-6.9,1.7-8.6,3.2c0.3,2.5,5.9,4.7,0.3,8c-1,0.6-3.9,0.7-4.7,0.8c-0.6,0.1-2.2-0.7-3.3-0.7
				c-0.8,0-6.9,2.2-7.2,3l0.4,0.4c0.4,0,1.7,0.9,1.7,0.9c-0.2,1.7-2.7,3.2-2.5,4.3c0.7,4.1-0.4,2.4-0.5,4.6c0,0.6,0.2,1.2,0.1,1.7
				c0.6,0.4,1.8,2.2,1.9,2.2c0.4,0.9,0.8,2.5,0.4,3.4c-2.7,2.1,3.7,2.5,6.1,4.7c0.5,1.7,2.5,4.7,1.7,6.4c-0.9,0.5-2.2,1.1-3,1.8
				c-3.2,2.7-3.1,5.3-7.3,7.5c-2.1,1.1-4.9,0.6-6.7,1.6l-0.2,0.3l0,0.2c0.4,0.3,2.9,2.9,2.9,2.9c1.4-0.1,3.8-1,4.7,0.4
				c-0.1,0.7-0.1,1.4,0.1,2.1c2.4,1.9,1.4,7.5,2.2,10.4c0.9,3.3,2.4,5.5,4.1,8.5c0,0.1-0.1,0.3-0.1,0.3c0.1,1.4-0.7,4.7-0.5,5.2
				c0.5,1.3,2,3.5,1.4,4.8c0.2,0.4,0.4,1.6,0.2,2c-0.3,0.4-1.5,0.4-1.9,0.6c-0.3,0.1-3.4,2.1-3.5,2.2c-0.4,0.5-0.5,0.9-1.1,1.4
				c-0.9,0.8-3,2.2-4.2,2.6c-1.9,0.6-5.6-0.5-6.6,1.5c0.2,1.1,0.7,2,0.9,3c-0.7,2.1-0.4,1.2,0,4.5c0.1,0.7,1.4,1.5,1.8,2.1
				c0.1,0.2,1.1,3.8,0.9,4c0,1.5-0.9,3-4.2,4c2.3,1.8,7.8,1.2,8.3,6.3c-0.8,0.6-4.3,1.4-5,2.1l-0.1,0.6c0.1,0.6,2,0.4,2.4,0.8
				c-1.5,1.9-7.5-0.5-9.6-1l-0.8,0.4c0,0.2-0.1,0.4-0.3,0.5c-0.2,0.6,0.9,2.5,1.1,3.3c-0.6,2.2-1.9,2.3-2.8,4c-0.9,0-2.3-0.2-3,0.5
				c-0.2,0.9-0.5,1.8-0.9,2.8c-0.1,0.6-0.6,1.3-0.8,1.8c-1.2,2.4-2.6,0.8-4,0.6c-0.8-0.1-1.7,0.3-2.5,0.4c-2.2,0.3-4.2,1.8-5.3,3.5
				c-0.1,0.2,0,0.6,0,0.8c0.2,0.7,2.1,0.8,2.6,1.4c1,1.1-0.2,3.9-0.6,5.1c0.2,1,0.2,1.4,0.9,2.2c0.2,0.2,0.4,0.5,0.4,0.8l-0.4,0.3
				c-1.5,0-3,0.7-3.8,2c-1-0.2-2.4-0.4-2.7,0.9c0.1,0.3,0.2,0.8,0.2,1.1c-0.4,0.1-1.2,0.3-1.5,0.7l-0.2,0.5c0,0.4,0.4,1,0.7,1.2l1,0
				l0.2,0.4c-0.6,1-0.4,1-1.3,1.8c-1.3-0.2-3.4-0.5-4.6-1.1l-0.6,0.3l0.1,0.7c1.2,1,2,3.2,2.6,4.6c-0.2,0.5-1,2.4-0.9,2.7
				c-1.3,2.2-3.4,2-3,5.2c1.1,1.2,2.8,0.9,3.9,2c1.2,1.1,0.7,3.6,2.4,3.8c1,1,0.6,2.8,1.5,3.5c1,0.8,2.2,0.1,3.2,0.8
				c0.4,0.7,1.7,2.9,1.7,3.8c0,1.3-0.4,2.2-0.3,3.7c0.1,0.8,1.5,3.3,0.9,4.2c4.6,2,4.5,5.6,1.6,7.2l-1,0.8c-0.1,0.1-0.6-0.3-0.7-0.2
				c-0.6,0.1-1.4-0.7-1.8-0.7c-0.1,0.1-0.4,0.3-0.6,0.3c-0.2,0.2-0.8,0.7-0.8,1l0.3,0.4c0.4,0.1,1.1,0.5,1.3,0.9
				c-0.2,0.3-3,0.7-4.1,1.9l0.1,0.5c0.7,0.4,2.6,1.3,3.1,1.9l-2.5,1.3c-1.7,4-4.9,3.5-7.8,2.7c-0.4-0.7-0.6-1.9-1.3-2.3h-1.4
				c-0.2,3,1.3,5.2,2.1,7.9c0.5,1.5,1,3.8,1,5.5c0,1.1-0.3,1.9-0.3,2.9c0,1.1,0.3,2,0.5,3.1c-0.6,4-3,3.2-5.4,5.6l-0.4,0.5l-0.4,0.2
				l-3,0l-0.3,2.3l-0.2,0.3l-0.6,0.1l-0.1,0.3l-0.5,0.3l-0.6-0.2l-0.9,0l-0.5,0.2l-0.2,0.4l-0.3,0l-0.2,0.6l-0.1,0.4l0.1,0.1
				l-0.4,0.9l-0.5,0.5l-0.3,0.3l-0.2,0.3l-0.4,0c0,0-0.3,0.4-0.3,0.3l0,0.3l-0.1,0.1l-1-0.5h-0.3l-0.1,0.2l-0.1,0.1l-0.6,0l-0.6-0.1
				l-0.4,0l-0.6-0.4l-0.2-0.6l-0.1-0.1l0-0.2h-1.2l-1.7-0.3l-0.3-0.3l-0.4-0.2l-0.4,0.5l-0.3-0.1l-0.5,0.4l-0.4,0.3l-0.1,0.6
				l0.2,0.4l-0.2,0.2l-0.4,0.9l-0.3,0.1l-0.1,0.2l-0.4,0l-0.3,0.2l-0.4,0l0,0.3l-0.3,0.2l0.2,0.3l-0.1,0.2l0.1,0.3l-0.1,0.2
				l-0.1,0.1l0,0.2l0.3,0.2l0.1,0.3l0.1,0.3l-0.4,0l-1.2,0.1l-0.2,0.8l0.5,0.7l0,0.4l0,0.4l-0.6,0l-0.3,0.1l-0.3,0l-0.3,0.1l0.1,0.5
				l-1,0.5l-0.1,0.5l-0.2,0.3l0,0.1l-0.2,0.2l0.1,0.5l-0.2,0.4l-0.2,0.1l0,0.1l0.1,0.2l-0.2,0.6l-1,0l-0.3,0.5l0.1,0.7l-0.1,0.2
				l-0.7-0.1l-0.6,0.1l-0.6,0.7l-0.1,0.3l-0.2,0.8l-1.6,0.7l-0.2,0.4l0.3,0.7l0.1,0.5l-0.2,0.3l-0.1,0.4l-0.3,0.2l0.2,0.8l-0.1,1.1
				l0.6,0.7l0.2,0.7l0.1,0.1l0.5-0.1l0.4,0.1h0.3l0.3,0l0.3,0l-0.1-0.2l0.2-0.3l0.2-0.1l0.2-0.2l0.1-0.1l0.1,0l0.4,0.4l0.2,0.3l0,0
				l0.3,0.1l0.1,0.1l0.6,0.2l0.8,0.1l0.1-0.2l0.1,0.1l0,0l0,0.3l-2.6,0.5h-0.7l0.1,0.4c-0.1,0.2-0.1,0.3-0.3,0.5l-0.2,0.2l0.2,0.4
				l0.3,0.4l0.1,0.2l0,0.2l-0.3,0.3l-0.2,0.1c2.8-1.9,0.1,0.2,0.1,0.3l0.2,0.2l0,0.4c-2.4,3.8-3.1,2.8-0.2,0.4l-1,0.2l-0.1,0.2
				l-0.2,0.2l-0.2,0.3l-0.3,0.3l0,0.9l0.2,0.4l0.2,0.2l0.2,0.4l0.2,0.5l0.5,0.3l0.7,0.3l0.3,0.2l0.6,0.1l0.5,0.1l0.8,0.1l0.4,0.1
				l0.5,0.3l0.4,0.3l0.1,0.3l-0.3,0.1l0,0.4l0.2,0.2l0.3,0.6l0.1,0.3l0.2,0l0.5-0.1l0,1l0.1,1.5l-0.1,2.1l-6.9,8l0,0.5l-0.3,0.7
				l-0.3,0.5l-0.2,0.2l0,0.8l-0.4,0.4l-17.3,7.7l0.1,0l0.1,0l0.1,0l0.1,0.1l0,0.1l0,0.1l-0.1,0.1l-0.2,0.1l-0.1,0l-0.2,0.1l-0.3,0.1
				l-0.2,0.1l-0.1,0.1l-0.4,0.2l-0.2,0.1l-0.4,0.2l-0.2,0l-0.1,0.2l-0.2,0.2l0,0.2l0,0.1l0,0.7l0.1,0.2l0.1,0.1l0.1,0.1l0.1,0.1
				l0.1,0.1l0.1,0.4l-0.2,0.1l-0.3,0.2l0,0.4l-0.5,0.2l-0.4,0.9l-0.3,0.6l-0.2,0.3l0.1,0.2l-2.3,0.8l-0.3,0.5l0,0.4l-0.1,0.2l0,0.3
				l0,0.4l0.1,0.8l-0.3,0.3l0,0.3l0.1,0l0.1,0.1l0.2,0l0.3,0l0.4,0l0.2,0.1l0.5,0l0.1,0.1l0.1,0.2l0.2,0.1l0.5,0.1l0.3,0.2l0.3,0.3
				l0.3,0.1l0.2,0l0.2,0l0.6,0.1l0.4,0l0.3-0.2l0.4-0.3l0.2-0.1l0.2-0.2l0.2,0l0.1,0.1l0,0.1l0,0l0.3,0.2l0,0.1l0.2,0.6l-0.1,0.1
				l0.1,0.1l0,0.1l-0.2,0l-0.2,0l0,0.1l0.2,0.4l0.1,0.3l0.1,0.3l0,0.2l0.1,0.2l0.2,0.3l-0.1,0.3l-0.2,0.1l-0.1,0.1l0.1,0.3l0.1,0.1
				l0,0.2l0.1,0.2l0.1,0.2l0,0.2l-0.5,0.3l0,0.2l-0.6,0.3l-0.4,0.7l0,0.1l0.1,0.1l0.1,0.1l-0.1,0.1l-0.2,0l0-0.1l-0.6,0l-0.3-0.1
				l-0.4-0.1l-0.4-0.2l0,0.1l-0.1,0l-0.1,0.1l-0.4-0.1l0,0.3l0.2,0l0.1,0.1l0.1,0.1l0.2,0l0,0.2l0.2,0.2l0.3,0.1l0.1,0.1l0,0.4
				l-0.1,1l-0.8,0l-0.2,0.3l0,0.2l-0.2,0.2l-0.1,0.2l0,0.2l-0.1,0l-0.4-0.2l-0.1,0.1l0,0.2l0.1,0.1l0.1,0.2l0.1,0.1l0,0.2l-0.1,0.1
				l0.1,0.4l0,0.1l-0.1,0.2l-0.2,0.2l0,0.3l-0.1,0.1l-0.2,0.1l-0.1,0.5l0.1,0.4l0.2,0.1l0.1,0l0.2,0.1l0.2,0l0.2-0.1l0.2,0h0.2
				l0.1,0l0.1,0.1l0,0.1l0,0.2l0.1,0l0.1,0.1l0.2,0.1l0.4,0.1l0.3,0.1l0.1,0.1l0,0.2l-0.1,0.1l-0.2,0.1l0,0.1l0.1,0.1l0.8,0.7
				l1.1-0.5l0-0.1l0.4,0l0.3,0.3l0,0.3l0.1,0.1l0.6,0.6l0,0.1l0.1,0.2l-0.4,0.4l-0.4,0.3l-0.5,0.2l-0.3,0.3l-0.2,0.4l0.1,0.1
				l-0.1,0.2l-0.4,0.3l0,0.2l0.1,0l0,0.2l0.1,0.5l0.6,0.3l0.5-0.1l0.1,0.2l4.1,3.5l-2.6,2.5l-1.3,0l-0.6,0.5l0.6,0.8l-0.5,0.5
				l0.2,0.2l0.1,0.1l0.7,0.9l0.1,0.1l0.2-0.2l0.3,0l0.2-0.3l0.1-0.1l0.3-0.1l1.7,0.2l0,0.1l-0.3,0.1l-0.1,0.2l-0.1,0.2l-0.1,0.3
				l-0.2,0.1l-0.2,0.1l-0.1,0.2l0.5,1.3l1.4,1.1l0,0.2l-0.1,0.2l-0.1,0.8l-0.3,0.3l0,0.3l0.2,0.1l0,0.2l0.3,0.2l0.1,0.1l0,1.1
				l-0.2,0.1l0,0.1l-0.4,0.1l0,0.2l-0.1,0.1l0.1,0.1l0.4,0l0.1,0.1l0.2,0.1l0.1,0.1l-0.6,0.6v0.4l0.5,0.8l0,0.1l-0.1,0.1l0,0.2
				l-0.1,0.1l-0.1,0l-0.1,0.1l0,0.2l0.1,0.2l0.2,0l0.1,0.1l0,0.4l0.2,0.1l0.1,0l0,0.1l0.4,0.3l0,0.2l0.2,0l0.1,0.2l0.2,0.1l0,0.4
				l-0.1,0.1l0,0.1l0.1,0.1h1.3l0.2,0.1l0.1,0l0.1,0.1l0.5,0.9l0.2,0.1l0.4,0.1l0.5,0.1l0.3,0.1l0.1,0.1l0.2,0.1l0.3,0l0.3,0
				l0.6,0.1l0.5,0.3l0.1,0.2l0.1,0.2l0,0.1l0.4,0.2l0.1-0.1l0.4-0.1l1.4,0.7l1.5,1.6l0.1,0l0.1,0.1l0,0.1l0.3,0l0.1,0.1l0,0.1
				l0.1,0.1l0.1,0l0.3,0.1l0.1,0.1l0,0.2l0,0.2l-0.1,0.2l-0.1,0.1l0.1,0.1l0,0.3l-0.1,0.1l-0.1,0.1l-0.3,0.2l-0.2,0.2l-0.2,0.2
				l0,0.2l0.1,0.1l0,0.2l-0.4,0.4l-0.1,0.4l-0.2,0.3l-0.3,0.1l-0.5,1.3l-0.5,1l-0.1,0.1l0,0.2l0.4,0.1l0.3,0l0.2,0.1l0.1,0.1
				l0.2,0.2l0.1,0.5l0.5,0l0.6,0.2l0.2,0.2l0.1,0.2l0,0.2l-0.2,0.1l-2.9,3l0,0.5l0.5-0.6l1.2-0.6l1.5-1.4l2.6-0.5
				c3.9-2,5.1-0.8,12.9-8.1c2.5-1.1,5.7-2.5,8.9-3.5c1.1,0,1.2,2.1,6.1,3.1c3,1.4,2.5,0.7,3.2-2.1c1-1.2,4.2-2.4,5.7-2.2
				c1,0.1,2.2,1.2,3.2,1.4c3.1,0.8,4-1.8,4.9,2c1.5,0.1,3.3,0.4,4.3,1.4c0.1,0.6-2.8,1.7-3.1,5.2c0.1,0.7,3.4,5.9,3.5,6
				c-0.6,1.8,0.9,4.6,0.5,8.8c-0.2,2.2-0.5,4.2-0.7,4.9c-0.1,0.3,0.4,1.1,0.1,1.2c-0.8-0.1-6-0.7-6.3-0.4c-1,3-0.6,4-1.9,4.6
				c0,0.3-0.2,0.7-0.3,1c2,7.3,6.2,5.4,7.8,7.7c1.7,5.1-2.4,3.5-5.6,7.1c0.3,2.4,3,0.4,3,1.2c0.8,4.1-0.7,4.9-0.4,8.6
				c-0.4,2.6-5.6,1.1-6.9,5.7c0.1,0.6,0.8,1.1,1.3,1.5c3,0.1,4.1-1.5,5.4,1.5c3,1.5,1.6,3.6,1.6,5.4c2.1,1.1,4.8,0.7,7,1.8
				c4.3,2.1,7.6,5.3,11.3,8.2c0.6,0.5,1.4,0.8,1.8,1.5c0.4,0.6,1,2.1,1.1,2.8c0.3,2.1-5.2,2.9-5.4,3.7c0.6,1.8,5.2,1.4,6.6,0.8
				c0.3,0.4-0.3,1.6,0.2,1.8c0.8,0.4,11.5,0.4,12.9,0.3c1.4,0,2.9,0,4.3,0c12.4,0.1,25,0.2,37.4-0.1c8.8-0.2,17.7,0.2,26.5,0.1
				c10.4,0,22.1,0.3,32.4,0.2c0.7,0,16.2,5.3,19.1,6.2c3.3,1,11,4,11,4l16.8,0.1l1,0l6.3,2.2l6,1.5l8.5,4.9l7.5,0.5l7.4,1.6l0.6,1
				c0,0,8.1,0.4,9.3,0.6c0.1,0.1,0,3.5,0,3.5l-1,0.8l-10.1,18v153l18-2.9l13.2-0.3l17.6,1.7l3.4,0.7l8-0.5l5.9,0.5l18.5,1.2
				l10.9,2.1l8.7,2.2l6.5,5.2l3.2,2l15.6,0.7l15.6,8.3"/>
			<path class="st10" d="M0,692.9c0.2-0.1,0.5-0.3,0.6-0.5c0.1-0.1,0.5,0,0.6,0l0.1,0.2c0,0.1,0,0.3,0,0.4l-0.1,0.1
				c-0.3-0.2-0.8-0.2-1.1,0L0,692.9z"/>
			<path class="st10" d="M14.1,696.1v0.2c-0.4,0.3-1.5,0.5-1.9,0.1l0-0.2c0.1-0.1,1.1-0.8,1.2-0.8l0.2,0L14.1,696.1z"/>
			<path class="st11" d="M1.4,693.3l0.2,0.2l0,0.2l-0.2,0.1l-0.1-0.2L1.4,693.3L1.4,693.3z"/>
			<path class="st12" d="M69.1,1113.4l0.3,0.2l0.1,0.2c0.1,0,0.4,0.1,0.5,0.2l0,0.1c-0.1,0.1-0.3,0.2-0.4,0.1l-0.1-0.1l-0.7,0.1
				c-0.3-0.1-0.8-0.6-1-0.9l0.1-0.1C68.3,1113.4,68.7,1113.4,69.1,1113.4L69.1,1113.4z"/>
			<path class="st13" d="M671.8,2660.2l1.1,0.6l0.3-2l-1.3,0.4L671.8,2660.2z"/>
			<path class="st13" d="M672.9,2663.2l0.4-0.7l0.6,0.3l0.6,2.5l-1,0.8L672.9,2663.2z"/>
		</g>
	</g>
</g>
</svg>
